# xmcd
#
# Track frame offsets: 
#        150
#        11132
#        21250
#        37045
#        54960
#        67190
#        88297
#        103165
#        129087
#        149442
#        163375
#        180387
#        201705
#        218247
#        228747
#        245762
#        261445
#        274475
#        283702
#        306645
#
# Disc length: 4339 seconds
#
# Revision: 4
# Processed by: cddbd v1.5.2PL0 Copyright (c) Steve Scherf et al.
# Submitted via: ExactAudioCopyFreeDBPlugin 1.0
#
DISCID=4e10f114
DTITLE=Jacques Michel - Chansons Victoires
DYEAR=1980
DGENRE=Pop
TTITLE0=Amène-toi chez nous
TTITLE1=Sur un dinosaure
TTITLE2=À cause d'une fleur
TTITLE3=L'enfant noir
TTITLE4=Les requins
TTITLE5=Ta mère et moi
TTITLE6=Un nouveau jour Va se lever
TTITLE7=S.o.s. on va couler
TTITLE8=La suite (Soleil aime-nous)
TTITLE9=Pas besoin de frapper
TTITLE10=Chacun son refrain
TTITLE11=Ton verre est vide
TTITLE12=Il chantait
TTITLE13=Rose chair de femme
TTITLE14=Pour toi
TTITLE15=Voyez-vous le temps qu'il fait
TTITLE16=L'invitation
TTITLE17=La belle et la bête
TTITLE18=Salut Léon
TTITLE19=Amène-toi chez nous
EXTD=
EXTT0=
EXTT1=
EXTT2=
EXTT3=
EXTT4=
EXTT5=
EXTT6=
EXTT7=
EXTT8=
EXTT9=
EXTT10=
EXTT11=
EXTT12=
EXTT13=
EXTT14=
EXTT15=
EXTT16=
EXTT17=
EXTT18=
EXTT19=
PLAYORDER=
